<?xml version="1.0" encoding="utf-8"?>
<!-- Generator: Adobe Illustrator 18.0.0, SVG Export Plug-In . SVG Version: 6.00 Build 0)  -->
<!DOCTYPE svg PUBLIC "-//W3C//DTD SVG 1.1//EN" "http://www.w3.org/Graphics/SVG/1.1/DTD/svg11.dtd">
<svg version="1.1"
	 id="svg2" xmlns:dc="http://purl.org/dc/elements/1.1/" xmlns:sodipodi="http://sodipodi.sourceforge.net/DTD/sodipodi-0.dtd" xmlns:cc="http://creativecommons.org/ns#" xmlns:inkscape="http://www.inkscape.org/namespaces/inkscape" xmlns:rdf="http://www.w3.org/1999/02/22-rdf-syntax-ns#" xmlns:svg="http://www.w3.org/2000/svg" inkscape:version="0.48.2 r9819" sodipodi:docname="New document 1"
	 xmlns="http://www.w3.org/2000/svg" xmlns:xlink="http://www.w3.org/1999/xlink" x="0px" y="0px" viewBox="0 0 612 792"
	 enable-background="new 0 0 612 792" xml:space="preserve">
<sodipodi:namedview  pagecolor="#ffffff" inkscape:cy="398.43419" bordercolor="#666666" fit-margin-left="0.5" fit-margin-top="0.5" inkscape:zoom="0.35" showgrid="false" id="base" inkscape:cx="719.17881" borderopacity="1.0" inkscape:window-maximized="1" inkscape:pageopacity="0.0" fit-margin-bottom="0.5" fit-margin-right="0.5" inkscape:window-width="1920" inkscape:pageshadow="2" inkscape:window-height="1028" inkscape:current-layer="layer1" inkscape:window-x="-8" inkscape:document-units="px" inkscape:window-y="-8">
	<inkscape:grid  type="xygrid" empspacing="5" visible="true" enabled="true" id="grid2996" snapvisiblegridlinesonly="true">
		</inkscape:grid>
</sodipodi:namedview>
<g id="layer1" transform="translate(-1800.0714,281.30188)" inkscape:label="Layer 1" inkscape:groupmode="layer">
	<path id="path3084" inkscape:connector-curvature="0" sodipodi:nodetypes="ccccccc" fill="#030303" d="M2213.7,250
		c0,0,35.5-4.7,86.8-4.7c51.7,0,85.9,4.7,85.9,4.7v127.8c0,50.2-39,87.5-86.4,87.5c-47.8,0-86.4-37.8-86.4-86.4V250z"/>
	<g id="g3076" transform="matrix(1.7293459,0,0,1.7293459,1653.959,-826.14975)">
		<g id="g3078" transform="matrix(1.25,0,0,-1.25,-154.35527,849.47317)">
			<g>
				<g id="g3080">
					
						<path id="path3082" inkscape:connector-curvature="0" sodipodi:nodetypes="cccccccccccccccccccccccccccccccsccssssccsscsssccccscsccscsssccccscsccsc" fill="#FFFFFF" d="
						M411.7,174.2H408v-4.8h-3.9v4.8h-3.7v-12.2h3.7v4.8h3.9v-4.8h3.7V174.2z M424.7,164.5v9.7H421v-12.2h6.7l0.6,2.4H424.7z
						 M418.2,174.2h-3.7v-12.2h3.7V174.2z M433.3,174.2h-3.7v-12.2h3.7V174.2z M451.6,171.1c0,0.7,0.7,1,1.7,1
						c1.2,0,2.4-0.3,3.3-0.6l-0.3,2.6c-1,0.2-1.8,0.4-3.4,0.4c-3,0-5-1.2-5-3.7c0-4.3,5.8-3.4,5.8-5.4c0-0.8-0.6-1.2-1.9-1.2
						c-1.2,0-3.1,0.4-4.2,1l0.4-2.8c1.1-0.4,2.6-0.6,3.9-0.6c3.1,0,5.6,1,5.6,4.1C457.4,169.9,451.6,169.2,451.6,171.1 M441.1,165
						c3.5,0,5.6,1.8,5.6,4.9c0,3.4-2.3,4.6-6.2,4.6c-1.5,0-3.3-0.1-4.5-0.3v-12.2h3.7v2.9L441.1,165L441.1,165z M443.1,169.8
						c0-1.6-0.8-2.6-2.7-2.6h-0.5v5c0.2,0,0.3,0,0.5,0C442.2,172.2,443.1,171.3,443.1,169.8 M393.3,165c3.5,0,5.6,1.8,5.6,4.9
						c0,3.4-2.3,4.6-6.2,4.6c-1.5,0-3.3-0.1-4.5-0.3v-12.2h3.7v2.9L393.3,165L393.3,165z M395.3,169.8c0-1.6-0.8-2.6-2.7-2.6h-0.4v5
						c0.2,0,0.3,0,0.4,0C394.5,172.2,395.3,171.3,395.3,169.8"/>
				</g>
			</g>
		</g>
	</g>
	<path id="path3086" inkscape:connector-curvature="0" sodipodi:nodetypes="ccccccccc" fill="#FFFFFF" d="M2225.7,388.2
		c-0.2-2.1-0.5-6.4-0.5-9.2c6.5,3.3,16.1,7.3,30.5,7.3c34.8,0,50.5-26.1,84.7-26.1c14.1,0,26,4,34,9c0.3,3.1,0.5,6.2,0.6,9.3
		c-9.2-4.5-18.7-7.2-30.4-7.2c-35.2,0-49.5,25.9-84.8,25.9C2246.1,397.2,2234.7,393.7,2225.7,388.2z"/>
	<path id="path3088" inkscape:connector-curvature="0" sodipodi:nodetypes="cccccccc" fill="#FFFFFF" d="M2225.8,369.5
		c1.2-10.4,4.1-18.1,8.8-26.8l15.5,2c2.9,0.4,5.1,1,6.5,2.6c1.4,1.5,2,2.5,2.8,8.3l2.3,18.1c0,0-4.7,0.8-10.6,0.9
		C2240.9,374.5,2231.7,371.9,2225.8,369.5L2225.8,369.5z"/>
	<path id="path3090" inkscape:connector-curvature="0" sodipodi:nodetypes="cccccc" fill="#FFFFFF" d="M2236.2,340
		c5.5-9.1,13.6-18.1,24.9-24.8l-1.9,14c-0.4,3-0.7,4.5-2.3,6.4c-1.4,1.5-3.6,2.1-6.3,2.6L2236.2,340z"/>
	<path id="path3092" inkscape:connector-curvature="0" sodipodi:nodetypes="cccccc" fill="#FFFFFF" d="M2264.7,322.4l-1.1-8.9
		c4.6-2.6,10.4-5.2,17.1-6.9l-1.3,9.9c-0.6,3.1-1.9,4.1-5.2,4.6L2264.7,322.4z"/>
	<path id="path3094" inkscape:connector-curvature="0" sodipodi:nodetypes="ccccccc" fill="#FFFFFF" d="M2280.6,339l-8.3-1.2
		c-3.9-0.8-6.1-3.5-6.7-8.4l-0.8-5.9l9.8,1.4c3.2,0.4,4.4,1.9,4.8,5.4L2280.6,339z"/>
	<path id="path3096" inkscape:connector-curvature="0" sodipodi:nodetypes="ccccccccccccccccc" fill="#FFFFFF" d="M2263.2,373.3
		l2-16.9c1.2-8.4,2.3-10.6,9.4-11.7l20.1-2.7v-1.3l-12.9-1.6l1.3-9.8c0.3-2.9,1.7-4.2,5.2-4.6l10.4-1.4v-0.8l-11.1-1.4
		c-3.2-0.5-4.2-1.9-4.6-4.8l-1.3-9.9c0,0,7.7-2.3,18.4-2.3c41.4,0,66,31.3,72,54.2c-6.3-4.1-19.1-10-34.6-10
		C2306.3,348.3,2290.4,368.2,2263.2,373.3L2263.2,373.3z"/>
	<path id="path3100" inkscape:connector-curvature="0" sodipodi:nodetypes="cccccccccccc" fill="#FFFFFF" d="M2300,453.8
		c-31.7,0-61.7-19.7-72.1-54.6c9.2,5.8,22.3,10,35,10c33.1,0,49.1-21,73.8-25.4l-2.6,20.5c-0.9,5.3-2.4,7.6-8.7,8.6l-20.3,2.6v1.4
		l19.1,2.4c6.3,0.7,9.3,2.8,9.9,9l2.1,16C2330,448.1,2316.7,453.8,2300,453.8L2300,453.8z"/>
	<path id="path3102" inkscape:connector-curvature="0" sodipodi:nodetypes="ccccc" fill="#FFFFFF" d="M2338.8,443.1l1.6-12.8
		c1-7.2,2.2-9.8,9.2-10.7l14.6-1.9C2356.8,429.6,2348.6,436.8,2338.8,443.1L2338.8,443.1z"/>
	<path id="path3104" inkscape:connector-curvature="0" sodipodi:nodetypes="ccccccc" fill="#FFFFFF" d="M2365.6,415.1l-14.7-1.9
		c-7.6-0.9-9.5-2.7-10.4-10.1l-2.5-19.4c0,0,5-0.9,10.8-0.9c8.6,0,20.2,2.7,25.6,5.1C2373.1,397,2371.4,404.4,2365.6,415.1
		L2365.6,415.1z"/>
	<path id="path3098" inkscape:connector-curvature="0" sodipodi:nodetypes="ccccccccccccccccc" fill="#030303" d="M2318.5,448.6h0.6
		l1.1-8.3c0.5-3.4,1.8-3.6,4.2-4.1l8.1-1v-0.6l-8.7-1.1c-2.3-0.4-3.2-1.6-3.5-3.6l-1.1-8.6h-0.7l-1.1,8.8c-0.5,2.1-1.3,3-3.6,3.4
		l-8.6,1.2v0.6l8.3,1.1c2.7,0.4,3.8,1.6,4,4.2L2318.5,448.6z"/>
</g>
</svg>
