<?xml version="1.0" encoding="UTF-8" standalone="no"?>
<!-- Created with Inkscape (http://www.inkscape.org/) -->
<svg xmlns:svg="http://www.w3.org/2000/svg" xmlns="http://www.w3.org/2000/svg" version="1.0" width="201" height="264" id="svg1535">
  <defs id="defs1538"/>
  <g transform="matrix(0.312456, 0, 0, 0.312456, -0.421112, -0.745368)" id="g1544">
    <path d="M 300.5,846.41644 C 269.44846,843.38497 257.77279,841.51456 237.5,836.32399 C 193.45363,825.04654 152.09982,804.64989 118,777.38385 C 105.96018,767.75688 82.752276,744.37033 72.962824,732 C 40.444179,690.90818 18.349053,640.26666 9.0442128,585.5 C 3.2396011,551.33507 3.6414403,572.92788 3.2798078,275.75 L 2.9479013,3 L 322.99303,3 L 643.03817,3 L 642.73157,279.25 C 642.44815,534.61181 642.2947,556.36955 640.70216,567 C 634.05487,611.37168 623.8559,645.36069 607.24473,678.5 C 582.63814,727.59017 542.11982,771.15963 494.5,799.73472 C 454.70565,823.614 409.93639,838.77166 362,844.59563 C 350.14036,846.03651 309.06495,847.25261 300.5,846.41644 z M 359,831.37808 C 416.92207,824.94809 471.84626,802.90638 517,767.97086 C 529.67953,758.16069 551.23793,736.95936 561.71142,724 C 600.95108,675.44686 623.17251,617.14106 628.97886,547.5 C 629.61247,539.90048 629.98315,440.24794 629.98968,275.75 L 630,16 L 323.48044,16 L 16.960884,16 L 17.27887,285.25 C 17.570276,531.99305 17.737973,555.40697 19.285031,565.35009 C 25.613374,606.02307 32.409884,630.95337 44.991916,659.64559 C 85.469737,751.95171 169.34994,814.48164 273.50588,829.99524 C 301.00888,834.09169 330.28922,834.5653 359,831.37808 z M 302.5,813.02973 C 225.13239,807.31464 155.10476,771.86502 104.90005,713 C 30.916916,626.25479 16.417098,502.17709 68.319153,399.97033 C 124.3581,289.61711 245.75872,228.0419 367.9033,248.01925 C 415.51387,255.80619 458.56226,274.6632 498,305.00707 C 510.47442,314.60505 537.55817,341.887 547.13335,354.5 C 579.35516,396.9445 598.56452,443.97008 605.13855,496.5 C 607.81331,517.87273 606.5653,555.56832 602.40716,579 C 582.27641,692.4396 494.03849,783.59297 381.31999,807.39207 C 357.15905,812.49335 325.69992,814.74348 302.5,813.02973 z M 352.97639,798.42956 C 375.74828,795.77998 399.70402,789.98677 419.39453,782.36769 C 431.66037,777.62152 457.04549,765.04504 457.67597,763.40202 C 458.20205,762.03109 445.43945,679.10611 444.5683,678.23497 C 444.29711,677.96378 425.62082,674.46664 403.06542,670.46355 C 380.51002,666.46046 361.5392,663.01307 360.90804,662.80268 C 360.27688,662.59229 379.27687,660.46015 403.13024,658.06459 C 426.98361,655.66902 446.62482,653.61217 446.77737,653.4938 C 447.09715,653.24568 456.96743,572.35321 456.98701,569.82005 C 457.00227,567.84635 446.18937,561.61156 435,557.14219 C 399.43177,542.93517 361.81179,545.98475 330.22945,565.63518 C 303.03383,582.55621 283.32121,587.74494 250.13604,586.71725 C 221.03183,585.81595 204.47298,580.63925 180.20856,564.8562 C 149.18621,544.6774 96.291367,544.57386 60.25,564.6214 C 55.519712,567.25256 54.001928,568.63308 54.00793,570.29894 C 54.012291,571.50952 55.128738,577.84874 56.488923,584.38608 C 70.094836,649.77908 107.35715,707.6116 161.77965,747.80124 C 199.06297,775.33404 243.31315,792.6968 291,798.50435 C 306.0892,800.342 336.85901,800.30486 352.97639,798.42956 z M 389.71579,762.79903 C 387.63447,749.48859 385.71594,738.3826 385.45238,738.11905 C 385.18882,737.85549 374.10732,735.69899 360.82682,733.32682 C 347.54632,730.95465 336.52371,728.85704 336.33214,728.66547 C 336.14056,728.4739 347.01885,727.2559 360.50612,725.95881 C 373.99338,724.66172 385.48958,723.31546 386.05322,722.96711 C 386.61686,722.61876 388.39045,711.62867 389.99452,698.5447 C 391.59859,685.46072 393.07096,674.59571 393.26644,674.40023 C 393.46191,674.20475 395.13124,684.5909 396.97605,697.48057 C 398.82086,710.37023 400.60244,721.35674 400.93513,721.89504 C 401.26782,722.43334 412.10601,724.06606 425.02001,725.52332 C 437.934,726.98058 449.32147,728.48196 450.32549,728.85974 C 451.3873,729.25925 442.39285,731.17627 428.82549,733.44212 C 415.99647,735.58467 404.56084,737.67266 403.41298,738.08211 C 401.51289,738.75989 401.02358,740.98395 397.94996,762.91328 C 396.09317,776.16098 394.33233,786.99996 394.03699,786.99991 C 393.74164,786.99986 391.7971,776.10947 389.71579,762.79903 z M 473.54143,753.95969 C 494.46597,739.94693 518.25557,718.10282 533.94049,698.5 C 541.25964,689.35261 557.48073,665.1474 556.76879,664.43546 C 556.50778,664.17445 537.21553,667.24328 513.89712,671.25507 L 471.5,678.54924 L 465.43438,720.71113 C 459.61211,761.18155 459.45163,762.82911 461.43438,761.77863 C 462.57047,761.17671 468.01864,757.65819 473.54143,753.95969 z M 562.16542,655.5 C 573.55091,634.54244 583.67786,605.75618 588.486,580.68267 C 589.68336,574.43871 589.65482,573.92448 588.14665,574.56848 C 581.252,577.51258 568.25521,581.46625 559.7124,583.21829 C 546.10126,586.00979 518.09673,586.24258 504,583.6814 C 490.95265,581.31088 478.55275,577.65555 467.72899,572.98917 C 462.71313,570.82671 458.43856,569.2281 458.22996,569.43671 C 457.82179,569.84487 469.64348,651.97681 470.1889,652.52224 C 470.69232,653.02565 554.23637,662.84987 556.43129,662.66376 C 557.71865,662.5546 559.63051,660.16607 562.16542,655.5 z M 273.67764,572.93424 C 291.61016,570.491 305.19046,565.55286 319.92399,556.11787 C 334.42493,546.83184 348.60259,540.94251 365,537.3935 C 375.62524,535.09381 402.91407,534.7987 413.5,536.869 C 426.74038,539.45844 441.75277,545.00628 457.66293,553.18945 C 481.49538,565.44735 496.88361,570.08559 519.75,571.90344 C 541.76764,573.65381 565.89077,569.8408 582.95321,561.91325 L 591.75213,557.8251 L 592.37606,553.27298 C 593.02219,548.55896 593.23726,538 592.68715,538 C 592.51509,538 589.92759,539.18623 586.93715,540.63607 C 567.35846,550.12833 542.10041,554.37237 519.00399,552.0507 C 492.86847,549.42355 474.59202,543.36514 445,527.51933 C 424.33237,516.45231 397.30717,511.75201 373.43433,515.07242 C 355.86263,517.51641 336.73261,525.11765 321.96868,535.52207 C 302.44234,549.28266 282.08487,555.00409 252.67764,554.99619 C 230.03095,554.99011 213.20337,551.47751 195.36984,543.0337 C 189.79825,540.39567 182.45319,536.34501 179.04748,534.03224 C 161.29243,521.97502 137.61582,516.08953 111.61979,517.27118 C 92.03801,518.16127 71.874661,523.42411 57.720943,531.33932 L 51,535.09788 L 51,541.42394 C 51,544.90327 51.259699,549.04849 51.577108,550.63554 L 52.154216,553.52108 L 59.783629,549.79966 C 87.474252,536.29295 123.27718,532.59969 154.7074,540.00778 C 167.46321,543.01432 177.78628,547.43573 190.14335,555.18513 C 206.57608,565.49048 217.4505,569.64811 235.5,572.52639 C 245.57376,574.13281 263.47674,574.32407 273.67764,572.93424 z M 273.55758,540.52288 C 290.88314,537.71278 302.06136,533.20632 316.09038,523.37593 C 327.07453,515.67913 342.93963,508.40771 356.7125,504.75767 C 368.02134,501.76063 369.33245,501.63106 389,501.56689 C 405.66769,501.5125 410.99554,501.84919 417.5,503.36789 C 431.131,506.55054 440.87163,510.35635 458.25108,519.28994 C 474.86673,527.83091 489.18138,533.2128 504,536.49018 C 515.55115,539.04491 541.37565,539.62178 552.5,537.57359 C 566.45593,535.00404 580.10471,530.11535 588.99965,524.50022 L 593,521.97491 L 593,514.48746 C 593,510.36935 592.76004,507 592.46676,507 C 592.17347,507 589.81097,508.07254 587.21676,509.38342 C 580.17623,512.94106 567.78851,516.58593 556.12429,518.53184 C 547.84728,519.91267 542.18374,520.14966 528.12429,519.70348 C 498.12172,518.75133 476.26574,512.59242 449.08977,497.43194 C 431.54573,487.64475 413.01114,483 391.5,483 C 365.23575,483 344.38934,489.48047 322.43107,504.47129 C 304.76526,516.53166 289.93388,520.86539 263.5,521.69094 C 249.098,522.14073 244.60937,521.89937 234.12869,520.11162 C 214.11115,516.6971 194.91292,509.43011 181,500.00114 C 172.40594,494.17683 163.76071,490.17412 153.72927,487.37489 C 146.03705,485.2284 141.66881,484.7149 127.5,484.29151 C 108.80746,483.73296 99.833697,484.79851 83.5,489.5161 C 74.132291,492.22174 55.107186,500.961 52.964596,503.54266 C 51.808355,504.93584 50.193301,519 51.189556,519 C 51.441616,519 55.214582,517.45501 59.573924,515.5667 C 79.892229,506.76551 98.094347,503.52226 122.99106,504.26704 C 150.48522,505.08952 165.69089,509.68347 188.67233,524.11071 C 203.37417,533.34021 219.3091,538.95369 237.5,541.31149 C 245.08932,542.29518 265.36452,541.85174 273.55758,540.52288 z M 274.90376,507.97724 C 292.02299,505.75515 302.53233,501.80047 316.0633,492.48884 C 338.59233,476.985 362.82726,469.64159 391.5,469.63084 C 414.47991,469.62223 433.49112,474.12989 452.04143,483.98556 C 474.20262,495.75967 485.60167,500.1606 504.33564,504.17522 C 512.53549,505.93242 517.97893,506.36685 532.5,506.42294 C 555.81835,506.51302 568.00883,504.04396 584.6191,495.86675 L 591.11947,492.66663 L 590.47836,488.58331 C 583.32962,443.0526 566.19592,402.50288 538.33761,365.18362 C 526.94739,349.92519 501.12887,324.09279 485.92947,312.74734 C 444.62171,281.91353 399.23657,264.13417 348.62848,258.96049 C 333.5204,257.41599 296.21668,258.23018 282.5,260.40382 C 277,261.27538 268.3375,262.92801 263.25,264.07633 C 255.0723,265.92215 253.99962,266.41549 253.99676,268.33209 C 253.99132,271.9698 260.21925,313.45272 260.88095,314.18624 C 261.22143,314.56367 272.3,316.08942 285.5,317.57679 C 298.7,319.06416 309.85344,320.59379 310.28541,320.97597 C 310.71739,321.35814 303.74239,322.88634 294.78541,324.37197 C 285.82844,325.8576 274.62768,327.77691 269.89484,328.63711 L 261.28967,330.20112 L 257.99602,353.85056 C 256.18451,366.85775 254.41904,378.05339 254.07276,378.72976 C 253.72647,379.40613 251.65594,368.63847 249.47158,354.80164 L 245.5,329.64377 L 222,325.45722 C 209.075,323.15462 197.6,321.08426 196.5,320.85643 C 195.4,320.6286 206.09288,319.28732 220.26195,317.87581 C 234.43103,316.4643 246.22564,315.10769 246.47221,314.86113 C 247.02919,314.30414 252.78282,267.64736 252.36072,267.11058 C 251.17101,265.59765 221.3638,276.38036 205.5,284.06237 C 175.27781,298.69739 153.76251,314.03393 129.95545,337.91204 C 89.942994,378.04392 64.35846,427.34972 54.58235,483.169 L 53.939767,486.83799 L 62.719883,482.97584 C 96.464746,468.13233 136.94727,466.17646 168,477.88936 C 171.025,479.03037 176.96492,481.9404 181.19983,484.3561 L 188.89965,488.74827 L 188.38702,486.12414 C 188.10507,484.68086 185.05508,465.61492 181.60925,443.75539 C 178.16342,421.89585 175.15418,403.82895 174.92205,403.60671 C 174.68992,403.38448 155.95479,399.91477 133.28841,395.89625 C 110.62204,391.87772 92.29494,388.37173 92.561527,388.10514 C 92.828114,387.83855 111.79152,385.69015 134.70243,383.33091 C 157.61334,380.97166 176.65363,378.69457 177.01419,378.27069 C 177.37476,377.84681 179.87495,358.91766 182.57019,336.20591 C 185.52007,311.3483 187.75423,295.82496 188.18316,297.20591 C 188.57507,298.46766 191.43623,317.04943 194.5413,338.49874 C 197.64638,359.94804 200.55249,377.72342 200.99933,377.99958 C 201.44617,378.27575 221.40709,380.73584 245.35694,383.46646 C 269.30678,386.19708 288.74242,388.59092 288.54724,388.78609 C 288.35206,388.98127 268.95319,392.45991 245.43863,396.51639 C 221.92408,400.57288 202.39047,404.36821 202.03061,404.95047 C 200.89756,406.78378 189.654,487.65594 190.29861,489.33579 C 191.13572,491.51726 206.6844,499.18873 216.626,502.32529 C 235.1226,508.16096 257.08141,510.29059 274.90376,507.97724 z M 547.84369,182.98772 C 543.63272,182.58483 538.12022,181.9452 535.59369,181.56632 L 531,180.87745 L 531,167.93873 C 531,160.82243 531.1125,155.00885 531.25,155.01967 C 531.3875,155.0305 535.1,155.6898 539.5,156.48479 C 553.6839,159.04753 566.89625,158.11573 571.25,154.24562 C 573.34569,152.38274 573.57097,146.71875 571.61397,145.09459 C 570.85166,144.46192 564.72461,141.94408 557.99832,139.49939 C 538.90209,132.5588 533.99247,128.89009 530.47333,118.93133 C 528.83284,114.28893 528.35834,103.48386 529.5739,98.449652 C 531.91174,88.767482 539.73801,79.354609 548.84866,75.267349 C 555.91401,72.097663 570.25012,71.120081 582.63872,72.963199 L 591,74.207151 L 591,87.210565 C 591,99.212357 590.8652,100.1565 589.25,99.467805 C 588.2875,99.057409 582.29193,98.506632 575.92652,98.243855 C 566.51604,97.855373 563.7649,98.070213 561.20616,99.39339 C 555.13794,102.53139 554.50365,108.65773 559.95512,111.47679 C 561.5645,112.30903 567.76191,114.73098 573.72715,116.8589 C 587.13875,121.64309 589.68113,122.95901 593.63805,127.16468 C 604.8319,139.06223 604.2014,160.24849 592.28842,172.51489 C 587.31941,177.63132 578.02903,181.79316 568.94521,182.97203 C 560.68531,184.04398 558.89732,184.04531 547.84369,182.98772 z M 52,128.5 L 52,76 L 80.962487,76 C 108.02637,76 110.29656,76.139027 115.59332,78.120798 C 128.51261,82.954524 136.22247,94.677615 137.67117,111.69087 C 139.23884,130.10139 130.99596,145.877 115.7668,153.61249 C 108.16802,157.4722 100.51788,159 88.789901,159 L 78,159 L 78,170 L 78,181 L 65,181 L 52,181 L 52,128.5 z M 100.01513,132.75 C 105.06854,129.31583 107.51041,123.7595 107.44498,115.84382 C 107.39954,110.34801 106.92088,108.47884 104.69924,105.12171 C 100.7634,99.174255 97.110831,97.611921 87,97.551117 L 78.5,97.5 L 78.227935,116.25 L 77.955869,135 L 87.330051,135 C 95.403752,135 97.163554,134.68786 100.01513,132.75 z M 151,128.5 L 151,76 L 165,76 L 179,76 L 179,96 L 179,116 L 194.5,116 L 210,116 L 210,96 L 210,76 L 224,76 L 238,76 L 238,128.5 L 238,181 L 224,181 L 210,181 L 210,159.5 L 210,138 L 194.5,138 L 179,138 L 179,159.5 L 179,181 L 165,181 L 151,181 L 151,128.5 z M 260,128 L 260,75 L 274.5,75 L 289,75 L 289,128 L 289,181 L 274.5,181 L 260,181 L 260,128 z M 309,128.5 L 309,76 L 323,76 L 337,76 L 337,117 L 337,158 L 351.5,158 L 366,158 L 366,169.5 L 366,181 L 337.5,181 L 309,181 L 309,128.5 z M 381,128 L 381,75 L 395.5,75 L 410,75 L 410,128 L 410,181 L 395.5,181 L 381,181 L 381,128 z M 432,128 L 432,75 L 459.89466,75 C 485.01198,75 488.43737,75.200159 494.29799,77.01032 C 510.36934,81.974256 519.10535,97.801397 517.75153,119.50143 C 516.78656,134.96868 508.83556,146.50882 494.13711,153.7756 C 487.10359,157.2529 486.16418,157.44609 473.13711,158.09419 C 465.6367,158.46733 459.3875,158.82379 459.25,158.88632 C 459.1125,158.94884 459,163.95 459,170 L 459,181 L 445.5,181 L 432,181 L 432,128 z M 479.01527,132.71033 C 485.07582,129.50543 487.5,124.56726 487.5,115.42656 C 487.5,109.44155 487.09057,107.73449 484.83924,104.33284 C 481.13001,98.728396 476.94849,97 467.09887,97 L 459,97 L 459,116 L 459,135 L 466.84272,135 C 473.08881,135 475.5669,134.53387 479.01527,132.71033 z " style="fill:#0c0a0b" id="path1546"/>
  </g>
</svg>